# xmcd
#
# Track frame offsets: 
#        150
#        15337
#        25529
#        33525
#        45073
#        57384
#        69217
#        78561
#        87927
#        96158
#        106128
#        120897
#        132429
#        147084
#        162847
#        174858
#        188497
#        206344
#        220126
#        235423
#        249992
#        265379
#        280912
#        292857
#        305262
#        320373
#
# Disc length: 4417 seconds
#
# Revision: 2
# Processed by: cddbd v1.5.2PL0 Copyright (c) Steve Scherf et al.
# Submitted via: ExactAudioCopy v1.0b3
#
DISCID=4b113f1a
DTITLE=Алексей Брунов - Я всю память листаю
DYEAR=1998
DGENRE=Bards
TTITLE0=Я всю память листаю
TTITLE1=Карельский вальс
TTITLE2=Хамар-Дабан
TTITLE3=Зимняя песня
TTITLE4=Река Неглинка
TTITLE5=Тиберда
TTITLE6=Астрономы
TTITLE7=Ты у меня одна
TTITLE8=Турбины ТУ
TTITLE9=Три минуты тишины
TTITLE10=Синий перекресток
TTITLE11=Песня об осени
TTITLE12=Воскресенье в Москве
TTITLE13=Чукотка
TTITLE14=Три сосны
TTITLE15=Не греет любовь и не светит
TTITLE16=Передо мною горы и река
TTITLE17=Не жалейте меня
TTITLE18=Речной трамвай
TTITLE19=Погода
TTITLE20=Октябрь. Садовой кольцо
TTITLE21=Да, мой любимый
TTITLE22=Сон под пятницу
TTITLE23=Авто
TTITLE24=Давайте прощаться, друзья
TTITLE25=Наше время
EXTD=Ïåñíè Þðèÿ Âèçáîðà â èñïîëíåíèè Àëåêñåÿ Áðóíîâà.\n1998.\nÑòèõè è 
EXTD=ìóçûêà Þðèÿ Âèçáîðà, êðîìå:\n2, 11 - ìóçûêà ñîâìåñòíî ñ Ñ. Áîãäàñ
EXTD=àðîâîé,\n16 - ìóçûêà Ñ. Íèêèòèíà,\n20, 22 - ìóçûêà çàèìñòâîâàíà.
EXTT0=
EXTT1=
EXTT2=
EXTT3=
EXTT4=
EXTT5=
EXTT6=
EXTT7=
EXTT8=
EXTT9=
EXTT10=
EXTT11=
EXTT12=
EXTT13=
EXTT14=
EXTT15=
EXTT16=
EXTT17=
EXTT18=
EXTT19=
EXTT20=
EXTT21=
EXTT22=
EXTT23=
EXTT24=
EXTT25=
PLAYORDER=
